<?xml version="1.0" encoding="UTF-8" standalone="no"?>
<!DOCTYPE svg PUBLIC "-//W3C//DTD SVG 1.1//EN" "http://www.w3.org/Graphics/SVG/1.1/DTD/svg11.dtd">
<svg width="100%" height="100%" viewBox="0 0 300 300" version="1.1" xmlns="http://www.w3.org/2000/svg" xmlns:xlink="http://www.w3.org/1999/xlink" xml:space="preserve" xmlns:serif="http://www.serif.com/" style="fill-rule:evenodd;clip-rule:evenodd;stroke-linejoin:round;stroke-miterlimit:2;">
    <g id="Artboard1" transform="matrix(0.265713,0,0,0.375,87.4297,0)">
        <rect x="-329.039" y="0" width="1129.04" height="800" style="fill:none;"/>
        <g transform="matrix(4.85677,0,0,3.44135,-933.406,-1036.27)">
            <path d="M187.47,427.195L159.513,483.108L291.435,483.108L290.125,480.487L301.305,474.897L307.138,486.563L301.548,495.608L149.4,495.608L143.81,486.563L219.884,334.415L231.064,334.415L249.103,370.493L237.923,376.083L235.128,370.493L225.474,351.186L192.678,416.778L204.083,416.778L248.645,385.307L251.415,384.359L287.881,382.708C289.815,376.66 295.486,372.275 302.172,372.275C310.451,372.275 317.172,378.997 317.172,387.275C317.172,395.554 310.451,402.275 302.172,402.275C295.964,402.275 290.632,398.496 288.353,393.114L253.409,394.696L222.14,416.778L308.463,416.778C310.582,411.064 316.085,406.987 322.533,406.987C330.811,406.987 337.533,413.708 337.533,421.987C337.533,430.265 330.811,436.987 322.533,436.987C316.085,436.987 310.582,432.91 308.463,427.195L222.14,427.195L253.409,449.278L288.353,450.859C290.632,445.477 295.964,441.698 302.172,441.698C310.451,441.698 317.172,448.419 317.172,456.698C317.172,464.977 310.451,471.698 302.172,471.698C295.486,471.698 289.815,467.313 287.881,461.265L251.415,459.615L248.645,458.666L204.083,427.195L187.47,427.195Z" style="fill:none;"/>
            <clipPath id="_clip1">
                <path d="M187.47,427.195L159.513,483.108L291.435,483.108L290.125,480.487L301.305,474.897L307.138,486.563L301.548,495.608L149.4,495.608L143.81,486.563L219.884,334.415L231.064,334.415L249.103,370.493L237.923,376.083L235.128,370.493L225.474,351.186L192.678,416.778L204.083,416.778L248.645,385.307L251.415,384.359L287.881,382.708C289.815,376.66 295.486,372.275 302.172,372.275C310.451,372.275 317.172,378.997 317.172,387.275C317.172,395.554 310.451,402.275 302.172,402.275C295.964,402.275 290.632,398.496 288.353,393.114L253.409,394.696L222.14,416.778L308.463,416.778C310.582,411.064 316.085,406.987 322.533,406.987C330.811,406.987 337.533,413.708 337.533,421.987C337.533,430.265 330.811,436.987 322.533,436.987C316.085,436.987 310.582,432.91 308.463,427.195L222.14,427.195L253.409,449.278L288.353,450.859C290.632,445.477 295.964,441.698 302.172,441.698C310.451,441.698 317.172,448.419 317.172,456.698C317.172,464.977 310.451,471.698 302.172,471.698C295.486,471.698 289.815,467.313 287.881,461.265L251.415,459.615L248.645,458.666L204.083,427.195L187.47,427.195Z"/>
            </clipPath>
            <g clip-path="url(#_clip1)">
                <g>
                    <path d="M175.393,421.987L275.556,421.987L225.474,321.823L175.393,421.987Z" style="fill:rgb(74,149,253);"/>
                    <path d="M175.393,421.987L298.172,496.759L138.007,496.759L175.393,421.987Z" style="fill:rgb(232,87,201);"/>
                    <path d="M312.942,496.759L275.556,421.987L219.484,465.111L251.842,496.759L312.942,496.759Z" style="fill:rgb(249,152,210);"/>
                    <g transform="matrix(1.03411,0,0,2.09125,-7.97306,-466.14)">
                        <path d="M337.533,409.156L251.395,409.156L214.876,416.194L214.876,440.629L337.533,440.629L337.533,409.156Z" style="fill:rgb(99,52,215);"/>
                    </g>
                    <g transform="matrix(1,0,0,1,18.6678,-7.09614)">
                        <path d="M304.612,407.096L277.524,417.562L234.741,401.792L196.097,429.083L156.725,429.083L231.847,379.001L301.888,372.4L304.612,407.096Z" style="fill:rgb(57,94,238);"/>
                    </g>
                    <path d="M175.393,421.987L214.765,421.987L253.409,449.278L279.454,437.938L305.228,437.088L330.294,447.993L332.218,460.538L301.487,473.849L219.484,465.111L175.393,421.987Z" style="fill:rgb(190,81,239);"/>
                </g>
            </g>
        </g>
    </g>
</svg>
