<?xml version="1.0" encoding="UTF-8" standalone="no"?>
<!DOCTYPE svg PUBLIC "-//W3C//DTD SVG 1.1//EN" "http://www.w3.org/Graphics/SVG/1.1/DTD/svg11.dtd">
<svg width="100%" height="100%" viewBox="0 0 30 30" version="1.1" xmlns="http://www.w3.org/2000/svg" xmlns:xlink="http://www.w3.org/1999/xlink" xml:space="preserve" xmlns:serif="http://www.serif.com/" style="fill-rule:evenodd;clip-rule:evenodd;stroke-linejoin:round;stroke-miterlimit:2;">
    <g transform="matrix(0.756438,0,0,0.756438,-72.6042,-959.556)">
        <path d="M131.533,1279.85L100.09,1279.85L100.09,1276.85L109.582,1276.85C110.258,1274.04 112.792,1271.94 115.812,1271.94C118.831,1271.94 121.365,1274.04 122.041,1276.85L131.533,1276.85L131.533,1279.85ZM118.871,1276.85C118.315,1275.72 117.154,1274.94 115.812,1274.94C114.469,1274.94 113.308,1275.72 112.752,1276.85L118.871,1276.85ZM102.74,1282.88L105.702,1282.41L108.798,1301.76L122.825,1301.76L125.921,1282.41L128.883,1282.88L125.585,1303.49L124.104,1304.76L107.519,1304.76L106.038,1303.49L102.74,1282.88ZM109.979,1285.82L112.962,1285.5L114.254,1297.51L111.271,1297.83L109.979,1285.82ZM118.661,1285.5L121.644,1285.82L120.352,1297.83L117.369,1297.51L118.661,1285.5Z" style="fill:white;"/>
    </g>
</svg>
