<?xml version="1.0" encoding="UTF-8" standalone="no"?>
<!DOCTYPE svg PUBLIC "-//W3C//DTD SVG 1.1//EN" "http://www.w3.org/Graphics/SVG/1.1/DTD/svg11.dtd">
<svg width="100%" height="100%" viewBox="0 0 30 30" version="1.1" xmlns="http://www.w3.org/2000/svg" xmlns:xlink="http://www.w3.org/1999/xlink" xml:space="preserve" xmlns:serif="http://www.serif.com/" style="fill-rule:evenodd;clip-rule:evenodd;stroke-linejoin:round;stroke-miterlimit:2;">
    <g transform="matrix(-1.36472e-16,0.742921,-0.742921,-1.36472e-16,343.786,-329.668)">
        <path d="M465.742,423.73L483.668,459.582C483.981,460.208 483.947,460.951 483.579,461.547C483.212,462.142 482.562,462.504 481.862,462.504L446.01,462.504C445.31,462.504 444.66,462.142 444.292,461.547C443.924,460.951 443.891,460.208 444.204,459.582L462.13,423.73C462.472,423.046 463.171,422.614 463.936,422.614C464.701,422.614 465.4,423.046 465.742,423.73ZM463.936,429.148L449.277,458.466L478.595,458.466L463.936,429.148Z" style="fill:url(#_Linear1);"/>
    </g>
    <defs>
        <linearGradient id="_Linear1" x1="0" y1="0" x2="1" y2="0" gradientUnits="userSpaceOnUse" gradientTransform="matrix(30.3256,-41.8494,41.8494,30.3256,448.52,466.966)"><stop offset="0" style="stop-color:rgb(74,149,253);stop-opacity:1"/><stop offset="1" style="stop-color:rgb(249,152,210);stop-opacity:1"/></linearGradient>
    </defs>
</svg>
