<?xml version="1.0" encoding="UTF-8" standalone="no"?>
<!DOCTYPE svg PUBLIC "-//W3C//DTD SVG 1.1//EN" "http://www.w3.org/Graphics/SVG/1.1/DTD/svg11.dtd">
<svg width="100%" height="100%" viewBox="0 0 100 100" version="1.1" xmlns="http://www.w3.org/2000/svg" xmlns:xlink="http://www.w3.org/1999/xlink" xml:space="preserve" xmlns:serif="http://www.serif.com/" style="fill-rule:evenodd;clip-rule:evenodd;stroke-linejoin:round;stroke-miterlimit:2;">
    <g transform="matrix(0.298379,0,0,0.298379,416.017,125.27)">
        <path d="M-1112.46,-318.834L-1112.46,-118.204C-1112.46,-114.348 -1115.59,-111.222 -1119.44,-111.222L-1333.93,-111.222C-1337.79,-111.222 -1340.92,-114.348 -1340.92,-118.204L-1340.92,-386.32C-1340.92,-390.176 -1337.79,-393.302 -1333.93,-393.302L-1186.93,-393.302C-1185.09,-393.302 -1183.31,-392.579 -1181.99,-391.257L-1114.5,-323.771C-1113.18,-322.449 -1112.46,-320.668 -1112.46,-318.834ZM-1193.91,-379.338C-1216.69,-379.338 -1326.95,-379.338 -1326.95,-379.338L-1326.95,-125.186L-1126.42,-125.186L-1126.42,-311.852L-1186.93,-311.852C-1190.78,-311.852 -1193.91,-314.978 -1193.91,-318.834L-1193.91,-379.338ZM-1136.3,-325.816L-1179.94,-369.463L-1179.94,-325.816L-1136.3,-325.816ZM-1219.7,-242.307L-1204.81,-257.199C-1202.09,-259.924 -1197.66,-259.924 -1194.94,-257.199C-1192.21,-254.474 -1192.21,-250.05 -1194.94,-247.325L-1221.75,-220.514C-1223.06,-219.2 -1224.83,-218.468 -1226.69,-218.468C-1228.54,-218.468 -1230.31,-219.2 -1231.62,-220.514L-1258.44,-247.325C-1261.16,-250.05 -1261.16,-254.474 -1258.44,-257.199C-1255.71,-259.924 -1251.29,-259.924 -1248.56,-257.199L-1233.67,-242.307L-1233.67,-292.479C-1233.67,-296.333 -1230.54,-299.461 -1226.69,-299.461C-1222.83,-299.461 -1219.7,-296.333 -1219.7,-292.479L-1219.7,-242.307ZM-1273.89,-208.693C-1273.89,-212.547 -1270.76,-215.675 -1266.9,-215.675C-1263.05,-215.675 -1259.92,-212.547 -1259.92,-208.693L-1259.92,-198.918L-1193.45,-198.918L-1193.45,-208.693C-1193.45,-212.547 -1190.32,-215.675 -1186.47,-215.675C-1182.62,-215.675 -1179.49,-212.547 -1179.49,-208.693L-1179.49,-191.936C-1179.49,-188.08 -1182.61,-184.954 -1186.47,-184.954L-1266.9,-184.954C-1270.76,-184.954 -1273.89,-188.08 -1273.89,-191.936L-1273.89,-208.693Z"/>
    </g>
</svg>
