<?xml version="1.0" encoding="UTF-8" standalone="no"?>
<!DOCTYPE svg PUBLIC "-//W3C//DTD SVG 1.1//EN" "http://www.w3.org/Graphics/SVG/1.1/DTD/svg11.dtd">
<svg width="100%" height="100%" viewBox="0 0 100 100" version="1.1" xmlns="http://www.w3.org/2000/svg" xmlns:xlink="http://www.w3.org/1999/xlink" xml:space="preserve" xmlns:serif="http://www.serif.com/" style="fill-rule:evenodd;clip-rule:evenodd;stroke-linejoin:round;stroke-miterlimit:2;">
    <g transform="matrix(1.03916,0,0,1.03916,-1.95789,-1.95789)">
        <path d="M50,11.427C71.289,11.427 88.573,28.711 88.573,50C88.573,71.289 71.289,88.573 50,88.573C28.711,88.573 11.427,71.289 11.427,50C11.427,28.711 28.711,11.427 50,11.427ZM50,15.437C30.924,15.437 15.437,30.924 15.437,50C15.437,69.076 30.924,84.563 50,84.563C69.076,84.563 84.563,69.076 84.563,50C84.563,30.924 69.076,15.437 50,15.437ZM47.165,50L34.148,36.983C33.365,36.2 33.365,34.93 34.148,34.148C34.93,33.365 36.2,33.365 36.983,34.148L50,47.165L63.017,34.148C63.8,33.365 65.07,33.365 65.852,34.148C66.635,34.93 66.635,36.2 65.852,36.983L52.835,50L65.852,63.017C66.635,63.8 66.635,65.07 65.852,65.852C65.07,66.635 63.8,66.635 63.017,65.852L50,52.835L36.983,65.852C36.2,66.635 34.93,66.635 34.148,65.852C33.365,65.07 33.365,63.8 34.148,63.017L47.165,50Z"/>
    </g>
</svg>
