<?xml version="1.0" encoding="UTF-8" standalone="no"?>
<!DOCTYPE svg PUBLIC "-//W3C//DTD SVG 1.1//EN" "http://www.w3.org/Graphics/SVG/1.1/DTD/svg11.dtd">
<svg width="100%" height="100%" viewBox="0 0 45 45" version="1.1" xmlns="http://www.w3.org/2000/svg" xmlns:xlink="http://www.w3.org/1999/xlink" xml:space="preserve" xmlns:serif="http://www.serif.com/" style="fill-rule:evenodd;clip-rule:evenodd;stroke-linejoin:round;stroke-miterlimit:2;">
    <g transform="matrix(1,0,0,1,-1288.34,-473.722)">
        <path d="M1296.42,499.155C1294.49,498.703 1293.05,496.972 1293.05,494.905C1293.05,492.839 1294.49,491.108 1296.42,490.656L1296.42,485.687L1297.42,484.687L1309.84,484.687L1309.84,482.09C1308.24,481.652 1307.07,480.192 1307.07,478.46C1307.07,476.382 1308.76,474.695 1310.84,474.695C1312.91,474.695 1314.6,476.382 1314.6,478.46C1314.6,480.192 1313.43,481.652 1311.84,482.09L1311.84,484.687L1324.26,484.687L1325.26,485.687L1325.26,490.656C1327.18,491.108 1328.62,492.839 1328.62,494.905C1328.62,496.972 1327.18,498.703 1325.26,499.155L1325.26,504.124L1324.26,505.124L1297.42,505.124L1296.42,504.124L1296.42,499.155ZM1296.42,492.762C1295.61,493.138 1295.05,493.956 1295.05,494.905C1295.05,495.854 1295.61,496.672 1296.42,497.049L1296.42,492.762ZM1310.84,486.687C1304.63,486.687 1298.42,486.687 1298.42,486.687L1298.42,503.124C1298.42,503.124 1323.26,503.124 1323.26,503.124L1323.26,486.687C1323.26,486.687 1317.05,486.687 1310.84,486.687ZM1310.84,480.225C1311.81,480.225 1312.6,479.434 1312.6,478.46C1312.6,477.486 1311.81,476.695 1310.84,476.695C1309.86,476.695 1309.07,477.486 1309.07,478.46C1309.07,479.434 1309.86,480.225 1310.84,480.225ZM1325.26,497.049C1326.06,496.672 1326.62,495.854 1326.62,494.905C1326.62,493.956 1326.06,493.138 1325.26,492.762L1325.26,497.049ZM1315.32,501.01L1306.36,501.01L1305.86,500.51L1305.86,498.269L1306.36,497.769L1315.32,497.769L1315.82,498.269L1315.82,500.51L1315.32,501.01ZM1308.1,498.769L1306.86,498.769L1306.86,500.01L1308.1,500.01L1308.1,498.769ZM1310.34,498.769L1309.1,498.769L1309.1,500.01L1310.34,500.01L1310.34,498.769ZM1312.58,498.769L1311.34,498.769L1311.34,500.01L1312.58,500.01L1312.58,498.769ZM1313.58,500.01L1314.82,500.01L1314.82,498.769L1313.58,498.769L1313.58,500.01ZM1303.7,491.381C1303.7,490.553 1304.37,489.881 1305.2,489.881C1306.03,489.881 1306.7,490.553 1306.7,491.381L1306.7,494.077C1306.7,494.905 1306.03,495.577 1305.2,495.577C1304.37,495.577 1303.7,494.905 1303.7,494.077L1303.7,491.381ZM1314.98,491.381C1314.98,490.553 1315.65,489.881 1316.48,489.881C1317.31,489.881 1317.98,490.553 1317.98,491.381L1317.98,494.077C1317.98,494.905 1317.31,495.577 1316.48,495.577C1315.65,495.577 1314.98,494.905 1314.98,494.077L1314.98,491.381ZM1317.47,508.028L1316.31,516.878L1315.32,517.748L1306.36,517.748L1305.36,516.878L1304.21,508.028L1305.2,506.899L1316.48,506.899L1317.47,508.028ZM1315.34,508.899L1306.34,508.899L1307.23,515.748L1314.44,515.748L1315.34,508.899Z"/>
    </g>
</svg>
