<?xml version="1.0" encoding="UTF-8" standalone="no"?>
<!DOCTYPE svg PUBLIC "-//W3C//DTD SVG 1.1//EN" "http://www.w3.org/Graphics/SVG/1.1/DTD/svg11.dtd">
<svg width="100%" height="100%" viewBox="0 0 100 100" version="1.1" xmlns="http://www.w3.org/2000/svg" xmlns:xlink="http://www.w3.org/1999/xlink" xml:space="preserve" xmlns:serif="http://www.serif.com/" style="fill-rule:evenodd;clip-rule:evenodd;stroke-linejoin:round;stroke-miterlimit:2;">
    <g transform="matrix(0.298379,0,0,0.298379,416.017,125.27)">
        <path d="M-1112.46,-318.834L-1112.46,-118.204C-1112.46,-114.348 -1115.59,-111.222 -1119.44,-111.222L-1333.93,-111.222C-1337.79,-111.222 -1340.92,-114.348 -1340.92,-118.204L-1340.92,-386.32C-1340.92,-390.176 -1337.79,-393.302 -1333.93,-393.302L-1260.2,-393.302L-1186.93,-393.302C-1185.09,-393.302 -1183.31,-392.579 -1181.99,-391.257L-1114.5,-323.771C-1113.18,-322.449 -1112.46,-320.668 -1112.46,-318.834ZM-1267.18,-379.338C-1298.3,-379.338 -1326.95,-379.338 -1326.95,-379.338L-1326.95,-125.186L-1126.42,-125.186L-1126.42,-311.852L-1186.93,-311.852C-1190.78,-311.852 -1193.91,-314.978 -1193.91,-318.834L-1193.91,-379.338C-1203.35,-379.338 -1227.81,-379.338 -1253.22,-379.338L-1253.22,-359.787L-1243.44,-359.787C-1239.59,-359.787 -1236.46,-356.659 -1236.46,-352.805C-1236.46,-348.952 -1239.59,-345.823 -1243.44,-345.823L-1253.22,-345.823L-1253.22,-326.273L-1243.44,-326.273C-1239.59,-326.273 -1236.46,-323.144 -1236.46,-319.291C-1236.46,-315.437 -1239.59,-312.309 -1243.44,-312.309L-1253.22,-312.309L-1253.22,-292.759L-1243.44,-292.759C-1239.59,-292.759 -1236.46,-289.63 -1236.46,-285.776C-1236.46,-281.923 -1239.59,-278.794 -1243.44,-278.794L-1253.22,-278.794L-1253.22,-259.244L-1243.44,-259.244C-1239.59,-259.244 -1236.46,-256.116 -1236.46,-252.262C-1236.46,-248.408 -1239.59,-245.28 -1243.44,-245.28L-1253.22,-245.28L-1253.22,-225.73L-1250.15,-225.73C-1246.65,-225.73 -1243.69,-223.139 -1243.23,-219.67L-1236.52,-169.399C-1236.26,-167.404 -1236.87,-165.391 -1238.19,-163.876C-1239.52,-162.362 -1241.43,-161.494 -1243.44,-161.494L-1276.96,-161.494C-1278.97,-161.494 -1280.89,-162.362 -1282.21,-163.876C-1283.54,-165.391 -1284.15,-167.404 -1283.88,-169.399L-1277.18,-219.67C-1276.71,-223.139 -1273.76,-225.73 -1270.26,-225.73L-1267.18,-225.73L-1267.18,-245.28L-1276.96,-245.28C-1280.81,-245.28 -1283.94,-248.408 -1283.94,-252.262C-1283.94,-256.116 -1280.81,-259.244 -1276.96,-259.244L-1267.18,-259.244L-1267.18,-278.794L-1276.96,-278.794C-1280.81,-278.794 -1283.94,-281.923 -1283.94,-285.776C-1283.94,-289.63 -1280.81,-292.759 -1276.96,-292.759L-1267.18,-292.759L-1267.18,-312.309L-1276.96,-312.309C-1280.81,-312.309 -1283.94,-315.437 -1283.94,-319.291C-1283.94,-323.144 -1280.81,-326.273 -1276.96,-326.273L-1267.18,-326.273L-1267.18,-345.823L-1276.96,-345.823C-1280.81,-345.823 -1283.94,-348.952 -1283.94,-352.805C-1283.94,-356.659 -1280.81,-359.787 -1276.96,-359.787L-1267.18,-359.787L-1267.18,-379.338ZM-1136.3,-325.816L-1179.94,-369.463L-1179.94,-325.816L-1136.3,-325.816ZM-1260.2,-211.765L-1264.14,-211.765C-1264.14,-211.765 -1268.98,-175.458 -1268.98,-175.458L-1251.42,-175.458L-1256.26,-211.765L-1260.2,-211.765Z"/>
    </g>
</svg>
