<?xml version="1.0" encoding="UTF-8" standalone="no"?>
<!DOCTYPE svg PUBLIC "-//W3C//DTD SVG 1.1//EN" "http://www.w3.org/Graphics/SVG/1.1/DTD/svg11.dtd">
<svg width="100%" height="100%" viewBox="0 0 40 40" version="1.1" xmlns="http://www.w3.org/2000/svg" xmlns:xlink="http://www.w3.org/1999/xlink" xml:space="preserve" xmlns:serif="http://www.serif.com/" style="fill-rule:evenodd;clip-rule:evenodd;stroke-linejoin:round;stroke-miterlimit:2;">
    <g transform="matrix(0.865981,0,0,0.781,-1115.3,-442.967)">
        <path d="M1293.06,608.071L1293.06,577.503L1294.22,576.222L1307.41,576.222L1308.23,576.597L1314.51,583.559L1327.78,583.559L1328.94,584.839L1328.94,608.071L1327.78,609.352L1294.22,609.352L1293.06,608.071ZM1311.24,583.559C1311.24,583.559 1306.93,578.783 1306.93,578.783C1306.93,578.783 1295.37,578.783 1295.37,578.783L1295.37,583.559L1311.24,583.559ZM1295.37,586.119L1295.37,606.791C1295.37,606.791 1326.63,606.791 1326.63,606.791L1326.63,586.119C1326.63,586.119 1320.71,586.119 1314.03,586.119L1295.37,586.119Z"/>
    </g>
</svg>
